<svg xmlns="http://www.w3.org/2000/svg" width="26" height="25" viewBox="0 0 26 25" fill="none">
    <path d="M23.6225 10.4605H22.7498V10.4173H12.9998V14.584H19.1223C18.2291 17.0095 15.829 18.7507 12.9998 18.7507C9.41021 18.7507 6.49984 15.9522 6.49984 12.5007C6.49984 9.04909 9.41021 6.25065 12.9998 6.25065C14.6568 6.25065 16.1643 6.85169 17.312 7.83346L20.3763 4.88711C18.4414 3.15326 15.8533 2.08398 12.9998 2.08398C7.01713 2.08398 2.1665 6.74805 2.1665 12.5007C2.1665 18.2533 7.01713 22.9173 12.9998 22.9173C18.9825 22.9173 23.8332 18.2533 23.8332 12.5007C23.8332 11.8022 23.7584 11.1204 23.6225 10.4605Z" fill="#FFC107"/>
    <path d="M3.41553 7.65221L6.97482 10.1621C7.9379 7.8694 10.2703 6.25065 12.9998 6.25065C14.6567 6.25065 16.1642 6.85169 17.312 7.83346L20.3762 4.88711C18.4414 3.15326 15.8533 2.08398 12.9998 2.08398C8.83869 2.08398 5.23011 4.34284 3.41553 7.65221Z" fill="#FF3D00"/>
    <path d="M13.0001 22.9165C15.7983 22.9165 18.3409 21.8868 20.2633 20.2124L16.9104 17.4842C15.7862 18.3063 14.4125 18.7509 13.0001 18.7499C10.1823 18.7499 7.7898 17.0223 6.88846 14.6113L3.35571 17.2285C5.14863 20.602 8.78971 22.9165 13.0001 22.9165Z" fill="#4CAF50"/>
    <path d="M23.6226 10.4592H22.75V10.416H13V14.5827H19.1225C18.6952 15.7371 17.9256 16.7458 16.9087 17.4842L16.9103 17.4832L20.2632 20.2113C20.026 20.4186 23.8333 17.7077 23.8333 12.4993C23.8333 11.8009 23.7586 11.1191 23.6226 10.4592Z" fill="#1976D2"/>
</svg>