<svg width="53" height="12" viewBox="0 0 53 12" fill="none" xmlns="http://www.w3.org/2000/svg">
<path d="M4.89 5.495C4.64 5.495 4.4 5.535 4.17 5.615C3.95 5.695 3.755 5.815 3.585 5.975C3.425 6.125 3.295 6.315 3.195 6.545C3.095 6.775 3.045 7.045 3.045 7.355C3.045 7.975 3.22 8.44 3.57 8.75C3.93 9.06 4.365 9.215 4.875 9.215C5.175 9.215 5.435 9.18 5.655 9.11C5.875 9.04 6.07 8.965 6.24 8.885C6.44 9.025 6.59 9.18 6.69 9.35C6.79 9.51 6.84 9.705 6.84 9.935C6.84 10.345 6.645 10.665 6.255 10.895C5.865 11.115 5.325 11.225 4.635 11.225C4.005 11.225 3.435 11.135 2.925 10.955C2.415 10.765 1.975 10.505 1.605 10.175C1.245 9.835 0.965 9.43 0.765 8.96C0.565 8.49 0.465 7.97 0.465 7.4C0.465 6.74 0.57 6.165 0.78 5.675C1 5.175 1.295 4.765 1.665 4.445C2.035 4.125 2.46 3.885 2.94 3.725C3.43 3.565 3.945 3.485 4.485 3.485C5.205 3.485 5.76 3.615 6.15 3.875C6.54 4.135 6.735 4.47 6.735 4.88C6.735 5.07 6.69 5.25 6.6 5.42C6.51 5.58 6.405 5.72 6.285 5.84C6.115 5.76 5.91 5.685 5.67 5.615C5.43 5.535 5.17 5.495 4.89 5.495ZM29.2357 5.495C28.9857 5.495 28.7457 5.535 28.5157 5.615C28.2957 5.695 28.1007 5.815 27.9307 5.975C27.7707 6.125 27.6407 6.315 27.5407 6.545C27.4407 6.775 27.3907 7.045 27.3907 7.355C27.3907 7.975 27.5657 8.44 27.9157 8.75C28.2757 9.06 28.7107 9.215 29.2207 9.215C29.5207 9.215 29.7807 9.18 30.0007 9.11C30.2207 9.04 30.4157 8.965 30.5857 8.885C30.7857 9.025 30.9357 9.18 31.0357 9.35C31.1357 9.51 31.1857 9.705 31.1857 9.935C31.1857 10.345 30.9907 10.665 30.6007 10.895C30.2107 11.115 29.6707 11.225 28.9807 11.225C28.3507 11.225 27.7807 11.135 27.2707 10.955C26.7607 10.765 26.3207 10.505 25.9507 10.175C25.5907 9.835 25.3107 9.43 25.1107 8.96C24.9107 8.49 24.8107 7.97 24.8107 7.4C24.8107 6.74 24.9157 6.165 25.1257 5.675C25.3457 5.175 25.6407 4.765 26.0107 4.445C26.3807 4.125 26.8057 3.885 27.2857 3.725C27.7757 3.565 28.2907 3.485 28.8307 3.485C29.5507 3.485 30.1057 3.615 30.4957 3.875C30.8857 4.135 31.0807 4.47 31.0807 4.88C31.0807 5.07 31.0357 5.25 30.9457 5.42C30.8557 5.58 30.7507 5.72 30.6307 5.84C30.4607 5.76 30.2557 5.685 30.0157 5.615C29.7757 5.535 29.5157 5.495 29.2357 5.495Z" fill="#7D7E80"/>
<path d="M15.3189 10.985C15.2189 11.015 15.0589 11.045 14.8389 11.075C14.6289 11.105 14.4089 11.12 14.1789 11.12C13.9589 11.12 13.7589 11.105 13.5789 11.075C13.4089 11.045 13.2639 10.985 13.1439 10.895C13.0239 10.805 12.9289 10.685 12.8589 10.535C12.7989 10.375 12.7689 10.17 12.7689 9.92V6.59C12.7689 6.18 12.6639 5.895 12.4539 5.735C12.2539 5.565 12.0039 5.48 11.7039 5.48C11.5039 5.48 11.3139 5.505 11.1339 5.555C10.9539 5.605 10.8089 5.665 10.6989 5.735V10.985C10.5989 11.015 10.4389 11.045 10.2189 11.075C10.0089 11.105 9.78887 11.12 9.55887 11.12C9.33887 11.12 9.13887 11.105 8.95887 11.075C8.78887 11.045 8.64387 10.985 8.52387 10.895C8.40387 10.805 8.30887 10.685 8.23887 10.535C8.17887 10.375 8.14887 10.17 8.14887 9.92V1.22C8.25887 1.2 8.41887 1.175 8.62887 1.145C8.84887 1.105 9.06887 1.085 9.28887 1.085C9.50887 1.085 9.70387 1.1 9.87387 1.13C10.0539 1.16 10.2039 1.22 10.3239 1.31C10.4439 1.4 10.5339 1.525 10.5939 1.685C10.6639 1.835 10.6989 2.035 10.6989 2.285V3.755C10.8289 3.705 11.0239 3.65 11.2839 3.59C11.5539 3.52 11.8489 3.485 12.1689 3.485C13.1589 3.485 13.9289 3.735 14.4789 4.235C15.0389 4.725 15.3189 5.46 15.3189 6.44V10.985ZM20.7483 11.24C20.1583 11.24 19.6083 11.16 19.0983 11C18.5983 10.83 18.1583 10.58 17.7783 10.25C17.4083 9.92 17.1133 9.505 16.8933 9.005C16.6833 8.505 16.5783 7.92 16.5783 7.25C16.5783 6.59 16.6833 6.025 16.8933 5.555C17.1133 5.075 17.3983 4.685 17.7483 4.385C18.0983 4.075 18.4983 3.85 18.9483 3.71C19.3983 3.56 19.8583 3.485 20.3283 3.485C20.8583 3.485 21.3383 3.565 21.7683 3.725C22.2083 3.885 22.5833 4.105 22.8933 4.385C23.2133 4.665 23.4583 5 23.6283 5.39C23.8083 5.78 23.8983 6.205 23.8983 6.665C23.8983 7.005 23.8033 7.265 23.6133 7.445C23.4233 7.625 23.1583 7.74 22.8183 7.79L19.1133 8.345C19.2233 8.675 19.4483 8.925 19.7883 9.095C20.1283 9.255 20.5183 9.335 20.9583 9.335C21.3683 9.335 21.7533 9.285 22.1133 9.185C22.4833 9.075 22.7833 8.95 23.0133 8.81C23.1733 8.91 23.3083 9.05 23.4183 9.23C23.5283 9.41 23.5833 9.6 23.5833 9.8C23.5833 10.25 23.3733 10.585 22.9533 10.805C22.6333 10.975 22.2733 11.09 21.8733 11.15C21.4733 11.21 21.0983 11.24 20.7483 11.24ZM20.3283 5.345C20.0883 5.345 19.8783 5.385 19.6983 5.465C19.5283 5.545 19.3883 5.65 19.2783 5.78C19.1683 5.9 19.0833 6.04 19.0233 6.2C18.9733 6.35 18.9433 6.505 18.9333 6.665L21.4983 6.245C21.4683 6.045 21.3583 5.845 21.1683 5.645C20.9783 5.445 20.6983 5.345 20.3283 5.345ZM39.5896 9.68C39.5396 10.15 39.3996 10.51 39.1696 10.76C38.9496 11.01 38.6246 11.135 38.1946 11.135C37.8746 11.135 37.5896 11.06 37.3396 10.91C37.0896 10.75 36.8196 10.485 36.5296 10.115L35.0446 8.255V10.985C34.9346 11.005 34.7696 11.03 34.5496 11.06C34.3396 11.1 34.1246 11.12 33.9046 11.12C33.6846 11.12 33.4846 11.105 33.3046 11.075C33.1346 11.045 32.9896 10.985 32.8696 10.895C32.7496 10.805 32.6546 10.685 32.5846 10.535C32.5246 10.375 32.4946 10.17 32.4946 9.92V1.235C32.6046 1.205 32.7646 1.175 32.9746 1.145C33.1946 1.105 33.4146 1.085 33.6346 1.085C33.8546 1.085 34.0496 1.1 34.2196 1.13C34.3996 1.16 34.5496 1.22 34.6696 1.31C34.7896 1.4 34.8796 1.525 34.9396 1.685C35.0096 1.835 35.0446 2.035 35.0446 2.285V6.245L37.6246 3.605C38.1446 3.605 38.5596 3.72 38.8696 3.95C39.1896 4.18 39.3496 4.47 39.3496 4.82C39.3496 4.97 39.3246 5.11 39.2746 5.24C39.2246 5.36 39.1446 5.485 39.0346 5.615C38.9346 5.745 38.7996 5.885 38.6296 6.035C38.4696 6.175 38.2796 6.34 38.0596 6.53L37.1896 7.28L39.5896 9.68ZM43.7278 1.685C43.7278 1.305 43.8528 0.984999 44.1028 0.724999C44.3628 0.464999 44.7028 0.335 45.1228 0.335C45.5428 0.335 45.8778 0.464999 46.1278 0.724999C46.3878 0.984999 46.5178 1.305 46.5178 1.685C46.5178 2.065 46.3878 2.385 46.1278 2.645C45.8778 2.905 45.5428 3.035 45.1228 3.035C44.7028 3.035 44.3628 2.905 44.1028 2.645C43.8528 2.385 43.7278 2.065 43.7278 1.685ZM46.3978 10.985C46.2878 11.005 46.1228 11.03 45.9028 11.06C45.6928 11.1 45.4778 11.12 45.2578 11.12C45.0378 11.12 44.8378 11.105 44.6578 11.075C44.4878 11.045 44.3428 10.985 44.2228 10.895C44.1028 10.805 44.0078 10.685 43.9378 10.535C43.8778 10.375 43.8478 10.17 43.8478 9.92V3.815C43.9578 3.795 44.1178 3.77 44.3278 3.74C44.5478 3.7 44.7678 3.68 44.9878 3.68C45.2078 3.68 45.4028 3.695 45.5728 3.725C45.7528 3.755 45.9028 3.815 46.0228 3.905C46.1428 3.995 46.2328 4.12 46.2928 4.28C46.3628 4.43 46.3978 4.63 46.3978 4.88V10.985ZM50.5712 8.495C50.5712 8.755 50.6512 8.94 50.8112 9.05C50.9812 9.16 51.2162 9.215 51.5162 9.215C51.6662 9.215 51.8212 9.205 51.9812 9.185C52.1412 9.155 52.2812 9.12 52.4012 9.08C52.4912 9.19 52.5662 9.315 52.6262 9.455C52.6962 9.585 52.7312 9.745 52.7312 9.935C52.7312 10.315 52.5862 10.625 52.2962 10.865C52.0162 11.105 51.5162 11.225 50.7962 11.225C49.9162 11.225 49.2362 11.025 48.7562 10.625C48.2862 10.225 48.0512 9.575 48.0512 8.675V2.255C48.1612 2.225 48.3162 2.195 48.5162 2.165C48.7262 2.125 48.9462 2.105 49.1762 2.105C49.6162 2.105 49.9562 2.185 50.1962 2.345C50.4462 2.495 50.5712 2.82 50.5712 3.32V4.28H52.5362C52.5962 4.39 52.6512 4.53 52.7012 4.7C52.7612 4.86 52.7912 5.04 52.7912 5.24C52.7912 5.59 52.7112 5.845 52.5512 6.005C52.4012 6.155 52.1962 6.23 51.9362 6.23H50.5712V8.495Z" fill="#FFFBFB"/>
</svg>